# xmcd
#
# Track frame offsets:
#  150
#  16480
#  32162
#  47635
#  71132
#  84122
#  102705
#  113620
#  132502
#  144985
#  162655
#  178522
#  202335
#
# Disc length: 2871 seconds
#
# Revision: 1
# Processed by: cddbd v1.5.1PL2 Copyright (c) Steve Scherf et al.
# Submitted via: AltoMP3_Maker 3.0
#
DISCID=bc0b350d
DTITLE=Electric Blues Duo - Lucky At Cards
DYEAR=1998
DGENRE=Blues
TTITLE0=All Alone With The Blues
TTITLE1=Dirty T.B. Blues
TTITLE2=You Can't Fool With The Blues
TTITLE3=Black Jack
TTITLE4=Lucky At Cards
TTITLE5=Full House
TTITLE6=Blues For Jimmy Vancey
TTITLE7=Corinna
TTITLE8=Cajun Moon
TTITLE9=Goin' Down
TTITLE10=Ask Me Nice
TTITLE11=J.J.
TTITLE12=Jenny's Rag
EXTD=
EXTT0=
EXTT1=
EXTT2=
EXTT3=
EXTT4=
EXTT5=
EXTT6=
EXTT7=
EXTT8=
EXTT9=
EXTT10=
EXTT11=
EXTT12=
PLAYORDER=
